<?xml version="1.0" encoding="UTF-8" standalone="no"?>
<svg
   xmlns:dc="http://purl.org/dc/elements/1.1/"
   xmlns:cc="http://creativecommons.org/ns#"
   xmlns:rdf="http://www.w3.org/1999/02/22-rdf-syntax-ns#"
   xmlns:svg="http://www.w3.org/2000/svg"
   xmlns="http://www.w3.org/2000/svg"
   xmlns:sodipodi="http://sodipodi.sourceforge.net/DTD/sodipodi-0.dtd"
   xmlns:inkscape="http://www.inkscape.org/namespaces/inkscape"
   width="4.38889in"
   height="4.44444in"
   viewBox="0 0 316 320"
   version="1.1"
   id="svg3"
   sodipodi:docname="logo.svg"
   inkscape:version="0.92.2 5c3e80d, 2017-08-06">
  <metadata
     id="metadata9">
    <rdf:RDF>
      <cc:Work
         rdf:about="">
        <dc:format>image/svg+xml</dc:format>
        <dc:type
           rdf:resource="http://purl.org/dc/dcmitype/StillImage" />
        <dc:title></dc:title>
      </cc:Work>
    </rdf:RDF>
  </metadata>
  <defs
     id="defs7" />
  <sodipodi:namedview
     pagecolor="#000000"
     bordercolor="#666666"
     borderopacity="1"
     objecttolerance="10"
     gridtolerance="10"
     guidetolerance="10"
     inkscape:pageopacity="0"
     inkscape:pageshadow="2"
     inkscape:window-width="920"
     inkscape:window-height="622"
     id="namedview5"
     showgrid="false"
     inkscape:zoom="1"
     inkscape:cx="143.74669"
     inkscape:cy="372.13391"
     inkscape:window-x="271"
     inkscape:window-y="33"
     inkscape:window-maximized="0"
     inkscape:current-layer="svg3"
     inkscape:pagecheckerboard="true" />
  <path
     id="cr"
     d="M 553.56758,37.253165 M 171.00298,278.58801 c -8.87527,11.26625 -19.13731,18.84083 -31.87639,25.09561 -13.10251,6.44605 -26.66409,8.54055 -41.124673,8.37796 C 85.741031,311.91812 72.571573,308.1882 61.659191,302.7368 20.716238,282.26054 1.8275833,233.13091 19.052124,190.60035 c 0.07651,-0.19128 0.239097,-0.57383 0.239097,-0.57383 5.795708,-14.03978 14.919646,-26.1859 26.424989,-35.47242 0.64078,-0.18172 194.89266,-142.626078 194.89266,-142.626078 0,0 -50.72679,84.535099 -50.72679,84.535099 0,0 118.35296,-84.535099 118.35296,-84.535099 0,0 -83.86563,119.022428 -83.86563,119.022428 0,0 83.86563,-51.396262 83.86563,-51.396262 0,0 -135.3671,196.595032 -135.44361,196.700232 -1.07116,1.56848 -1.78845,2.33359 -1.78845,2.33359 z M 80.538282,175.04949 c 1.291123,-5.54705 4.322872,-10.26204 8.750946,-13.56158 m 10.089885,6.56083 c -0.449495,0.45905 -0.908563,0.89899 -1.396325,1.32937 -4.485455,4.01683 -10.185524,6.24521 -16.239458,5.8244 -6.006114,-0.41124 -11.10366,-3.26128 -15.015285,-7.39288 m 112.203395,98.58444 c -2.46748,4.77237 -4.54285,7.89976 -7.92846,12.19394 -8.87527,11.26625 -19.13731,18.84083 -31.87639,25.09561 -13.10251,6.44605 -26.66409,8.54055 -41.124673,8.37796 C 85.741031,311.91812 72.571573,308.1882 61.659191,302.7368 20.716238,282.26054 1.8275833,233.13091 19.052124,190.60035 29.352418,165.18913 50.52684,145.87011 76.961393,138.41029 c 0,0 12.069611,-2.68745 15.302201,-3.07958 3.23259,-0.39212 10.520256,0 10.520256,0 10.97934,-0.18171 15.26395,2.19013 21.99693,4.62892 13.98238,5.57574 22.4751,12.49998 25.63118,17.45407 7.39288,8.76051 9.94643,21.10747 7.10596,32.23983 -2.45792,9.62125 -4.29418,36.15145 -4.90626,44.94065 -0.49733,7.15378 3.02217,13.6859 8.49271,17.2341 0.79381,0.51646 1.62586,0.96595 2.49618,1.34851 0.3156,0.14346 0.65034,0.27736 0.97551,0.39212 1.95103,0.72686 3.70122,1.09984 5.90091,1.06159 1.19549,-0.0192 -0.0956,-0.0574 1.10941,0 0.43037,0.0287 3.23259,0.64078 4.1316,1.16679 0.74598,0.43994 1.45371,1.02334 2.13274,1.76932 0.86075,0.94682 1.44415,2.11362 1.73107,3.35692 0.41124,1.76931 0.21996,3.72035 -0.62166,5.4801 m -21.42308,-76.75966"
     style="display:inline;fill:none;fill-opacity:1;stroke:#010000;stroke-width:4.30374908;stroke-miterlimit:4;stroke-dasharray:none;stroke-opacity:1"
     inkscape:connector-curvature="0" />
  <path
     style="display:inline;fill:#ffffff;fill-opacity:1;stroke:none;stroke-width:5.50162506;stroke-miterlimit:4;stroke-dasharray:none;stroke-opacity:1"
     d="m 85.334783,308.14376 c -35.064159,-7.46227 -61.349897,-33.72825 -68.355954,-68.30455 -2.107755,-10.4022 -1.450348,-29.77608 1.324701,-39.03916 11.235103,-37.50261 44.217354,-62.81269 81.85293,-62.81269 11.4354,0 17.49935,1.43083 28.72426,6.77767 14.45602,6.88595 22.34036,15.04899 25.70112,26.60964 1.72224,5.92426 1.57708,10.70562 -0.782,25.75749 -1.8636,11.89067 -3.35283,28.42175 -3.35679,37.26197 -0.003,5.88743 0.40468,7.78246 2.5591,11.9065 3.17038,6.06882 8.72219,9.79931 16.06681,10.79601 5.98454,0.81211 7.9632,2.1762 7.9632,5.48983 0,3.78592 -6.90123,13.58647 -15.57387,22.11668 -11.36287,11.17629 -24.9791,18.76568 -40.36153,22.49665 -8.33635,2.02197 -28.229284,2.54705 -35.761977,0.94396 z M 91.48121,176.30017 c 4.383353,-1.90909 9.44212,-5.49164 9.44212,-6.6868 0,-0.62773 -0.62263,-1.65806 -1.383613,-2.28963 -1.138345,-0.94473 -2.005928,-0.71705 -4.893932,1.28434 -3.372948,2.33746 -9.254437,4.5865 -10.012291,3.82864 -0.59272,-0.59272 1.665342,-4.45791 4.179155,-7.15359 2.2823,-2.44743 2.297362,-2.54949 0.645655,-4.37459 l -1.691158,-1.86871 -2.517592,2.41201 c -1.384681,1.3266 -3.47651,4.21957 -4.64851,6.42882 -2.388752,4.50284 -3.550024,4.59846 -8.730443,0.71888 -3.417111,-2.55905 -4.247031,-2.67244 -5.806543,-0.79334 -1.594356,1.92108 0.91897,4.63427 6.891578,7.4396 5.179179,2.43266 14.184189,2.94517 18.525574,1.05437 z"
     id="path4540"
     inkscape:connector-curvature="0" />
  <path
     style="display:inline;fill:#ffffff;fill-opacity:1;stroke:#010000;stroke-width:2.1518743;stroke-miterlimit:4;stroke-dasharray:none;stroke-opacity:1"
     d="m 85.265693,308.15166 c -34.774849,-7.30369 -61.116251,-33.44772 -68.164552,-67.65383 -1.872132,-9.08565 -1.875348,-25.35303 -0.0068,-34.46383 6.618415,-32.27079 33.022106,-58.98529 65.489535,-66.26045 9.713768,-2.17662 24.917114,-2.35395 32.589154,-0.38012 9.86329,2.5376 23.72442,9.97578 29.67049,15.92186 9.94658,9.94658 12.56297,19.60771 9.8445,36.35127 -3.64823,22.47023 -5.09779,44.42018 -3.35846,50.8558 2.0152,7.45639 11.5633,14.67159 19.41539,14.67159 3.40593,0 6.28722,2.48004 6.28722,5.41167 0,3.71676 -6.51048,13.2301 -14.56633,21.28486 -11.138,11.13648 -24.92692,19.15957 -39.44949,22.95371 -9.16241,2.39375 -29.263758,3.08995 -37.750643,1.30747 z M 93.129058,175.2458 c 2.521681,-1.18443 5.404672,-3.07454 6.406645,-4.20025 1.749167,-1.96516 1.755647,-2.09508 0.162509,-3.26001 -1.430063,-1.04569 -2.251699,-0.85685 -5.948152,1.36708 -4.164106,2.50529 -9.332249,4.26549 -9.332249,3.17844 0,-1.14454 2.158079,-4.64956 4.239996,-6.88632 1.906754,-2.04857 2.025008,-2.55892 0.937536,-4.04613 -1.848704,-2.52826 -3.842251,-1.24889 -7.713401,4.95014 -1.883455,3.01604 -3.869517,5.50237 -4.41347,5.52517 -0.543954,0.0228 -2.924424,-1.24051 -5.289932,-2.80736 -3.508346,-2.32383 -4.551203,-2.6411 -5.659054,-1.72166 -1.98041,1.64359 -1.716517,2.36984 1.849419,5.08972 7.076176,5.39726 16.883654,6.51077 24.760153,2.81118 z"
     id="path4554"
     inkscape:connector-curvature="0" />
  <path
     style="display:inline;fill:#000000;fill-opacity:1;stroke:#ffffff;stroke-width:8.60749722;stroke-linecap:square;stroke-linejoin:miter;stroke-miterlimit:4;stroke-dasharray:none;stroke-opacity:1;paint-order:stroke fill markers"
     d="M 85.060641,313.47678 C 42.562836,304.5984 12.400177,270.39381 10.358457,228.76417 9.0862129,202.82373 17.344215,179.7675 34.282755,161.96782 41.734283,154.13747 46.675803,150.28929 88.647098,119.63194 108.37261,105.22371 144.36271,78.926174 168.6251,61.192973 c 44.98039,-32.875844 61.82962,-45.037385 67.23068,-48.526182 5.65459,-3.6525496 7.78764,-2.004042 4.86634,3.760879 -0.97283,1.91979 -10.27759,17.799278 -20.67724,35.287752 -22.23526,37.391719 -20.95743,35.126283 -19.49699,34.565863 0.61185,-0.23479 1.42144,-1.004222 1.79907,-1.709844 0.37765,-0.705627 3.3544,-3.144497 6.61502,-5.419726 3.26064,-2.275223 22.71303,-16.083253 43.22757,-30.684509 47.98105,-34.150593 53.58716,-37.93853 55.70487,-37.638661 1.09905,0.155626 1.75729,0.792731 1.90688,1.845641 0.16547,1.164805 -9.60282,15.596194 -35.44286,52.362274 -19.61921,27.914868 -36.28651,51.64195 -37.03846,52.72685 -0.75195,1.08491 -1.08323,1.97255 -0.73618,1.97255 0.34706,0 12.55403,-7.29997 27.1266,-16.22216 35.6784,-21.844419 42.15527,-25.547064 44.18543,-25.259575 3.9937,0.565545 2.82392,2.662652 -19.9378,35.743405 -12.07947,17.55571 -41.49614,60.32421 -65.37035,95.04112 -23.87422,34.7169 -45.19929,65.5425 -47.38905,68.50133 -8.54248,11.54268 -21.44409,22.06191 -34.75607,28.33808 -13.0144,6.13588 -21.66202,8.1217 -37.44964,8.59982 -9.438989,0.28585 -12.622845,0.1081 -17.932279,-1.0011 z m 37.543509,-8.67021 c 13.67498,-3.60944 25.09004,-9.95304 36.29199,-20.16827 7.45801,-6.80109 16.18458,-18.91722 16.18458,-22.471 0,-1.39528 -1.48411,-2.13861 -7.14906,-3.58067 -7.64436,-1.94594 -13.89938,-6.77886 -17.23445,-13.31614 -2.55853,-5.01513 -1.96836,-23.88594 1.53692,-49.14309 3.81391,-27.48092 -1.54966,-38.24803 -24.8533,-49.89186 -10.07803,-5.03555 -14.86106,-5.89942 -30.48488,-5.50588 -10.998581,0.27704 -13.342962,0.55458 -18.936769,2.24192 -20.977486,6.32767 -38.348194,20.05881 -49.550687,39.16864 -10.946823,18.67369 -13.692332,40.73322 -7.907732,63.53679 7.304269,28.79429 33.850303,53.98456 63.483942,60.24169 7.527593,1.58944 30.938226,0.91529 38.619446,-1.11213 z"
     id="path818"
     inkscape:connector-curvature="0" />
</svg>
