<?xml version="1.0" encoding="UTF-8" standalone="no"?>
<!-- Created with Inkscape (http://www.inkscape.org/) -->

<svg
   xmlns:dc="http://purl.org/dc/elements/1.1/"
   xmlns:cc="http://creativecommons.org/ns#"
   xmlns:rdf="http://www.w3.org/1999/02/22-rdf-syntax-ns#"
   xmlns:svg="http://www.w3.org/2000/svg"
   xmlns="http://www.w3.org/2000/svg"
   xmlns:sodipodi="http://sodipodi.sourceforge.net/DTD/sodipodi-0.dtd"
   xmlns:inkscape="http://www.inkscape.org/namespaces/inkscape"
   width="400"
   height="400"
   viewBox="0 0 105.83333 105.83334"
   version="1.1"
   id="svg8"
   inkscape:version="0.92.2 (5c3e80d, 2017-08-06)"
   sodipodi:docname="logo.svg"
   inkscape:export-filename="/Users/yusuffadairo/Dropbox/Des/spacemango/logo.png"
   inkscape:export-xdpi="90"
   inkscape:export-ydpi="90">
  <defs
     id="defs2" />
  <sodipodi:namedview
     id="base"
     pagecolor="#ffffff"
     bordercolor="#666666"
     borderopacity="1.0"
     inkscape:pageopacity="0.0"
     inkscape:pageshadow="2"
     inkscape:zoom="1.3475"
     inkscape:cx="200"
     inkscape:cy="200.37106"
     inkscape:document-units="mm"
     inkscape:current-layer="layer1"
     showgrid="false"
     inkscape:window-width="1281"
     inkscape:window-height="741"
     inkscape:window-x="51"
     inkscape:window-y="23"
     inkscape:window-maximized="0"
     units="px"
     showguides="true"
     inkscape:guide-bbox="true" />
  <metadata
     id="metadata5">
    <rdf:RDF>
      <cc:Work
         rdf:about="">
        <dc:format>image/svg+xml</dc:format>
        <dc:type
           rdf:resource="http://purl.org/dc/dcmitype/StillImage" />
        <dc:title />
      </cc:Work>
    </rdf:RDF>
  </metadata>
  <g
     inkscape:label="Main"
     inkscape:groupmode="layer"
     id="layer1"
     transform="translate(0,-191.16665)">
    <path
       style="fill:#fff9f9;fill-opacity:1;stroke:#000000;stroke-width:4;stroke-linecap:butt;stroke-linejoin:miter;stroke-miterlimit:10;stroke-dasharray:none;stroke-opacity:1"
       d="M 229.04693,2.824567 42.757812,194.44336 c -24.526546,21.22419 -40.0449214,52.58001 -40.0449214,87.56055 0,63.92609 51.8219644,115.74804 115.7480494,115.74804 26.35839,-3.26206 62.20189,-14.4316 79.11914,-32.10351 66.28104,-65.83901 196.81183,-194.20699 196.81183,-194.20699 L 284.23047,212.24414 378.47852,21.521484 190.72266,117.25391 Z"
       id="path4772"
       inkscape:connector-curvature="0"
       sodipodi:nodetypes="ccsccccccc"
       inkscape:label="path4772"
       transform="matrix(0.26458333,0,0,0.26458333,0,191.16665)"
       inkscape:export-xdpi="90"
       inkscape:export-ydpi="90" />
    <path
       style="fill:#010101;fill-opacity:1;stroke:#000000;stroke-width:1.05833328;stroke-linecap:square;stroke-linejoin:miter;stroke-miterlimit:8;stroke-dasharray:none;stroke-opacity:1;paint-order:markers stroke fill"
       d="m 50.969271,207.23892 -36.679842,41.06389 c -5.1914529,4.49246 -8.2794597,11.91629 -8.2794597,19.32051 0,13.53102 10.9689837,24.5 24.5000047,24.5 5.579193,-0.69047 13.166067,-3.05469 16.746885,-6.79524 C 61.06229,272.5977 75.082305,257.70589 89.64446,245.47611 L 66.74381,255.61569 86.73126,209.9793 41.871047,230.58736 Z"
       id="path4772-7"
       inkscape:connector-curvature="0"
       sodipodi:nodetypes="ccsccccccc"
       inkscape:label="path4772-7" />
    <path
       style="fill:#ffffff;fill-opacity:1;stroke:#000000;stroke-width:1.05833328;stroke-miterlimit:4;stroke-dasharray:none;stroke-opacity:1"
       d="m 49.378365,276.35826 c -9.27734,-0.33716 -2.253229,-14.43913 -3.564913,-23.27776 -0.815793,-5.49714 -10.405866,-9.86178 -15.594414,-9.86178 -13.531021,0 -24.5000798,10.96906 -24.5000803,24.50008 5e-7,13.53102 10.9690593,24.50008 24.5000803,24.50008 13.531021,0 27.803338,-15.54648 19.159327,-15.86062 z"
       id="path4895-8"
       inkscape:connector-curvature="0"
       sodipodi:nodetypes="ssssss" />
    <path
       style="fill:none;stroke:#000000;stroke-width:0.84666663;stroke-linecap:butt;stroke-linejoin:miter;stroke-miterlimit:4;stroke-dasharray:none;stroke-opacity:1"
       d="m 27.776989,250.6235 c -0.740332,0.006 -2.065963,0.48552 -3.023278,3.45074 -1.419837,-0.4543 -2.494656,-1.6813 -3.802558,-1.78635 3.881921,3.03712 6.014848,2.18739 7.207829,1.14184 -1.388242,0.90061 -2.46707,0.94207 -3.396589,0.64699 0.659632,-1.62416 0.845825,-1.2363 3.571874,-3.3598 -1.67e-4,6e-5 -0.216969,-0.0963 -0.557278,-0.0934 z m 0.381993,2.80623 c 0.444212,-0.28818 0.918563,-0.65953 1.431643,-1.14184 -0.176922,-0.51965 -0.545247,0.36499 -1.431643,1.14184 z"
       id="path4778"
       inkscape:connector-curvature="0" />
  </g>
  <g
     inkscape:groupmode="layer"
     id="layer2"
     inkscape:label="Helpers"
     style="display:inline" />
</svg>
